<?xml version="1.0" standalone="no"?>
<!DOCTYPE svg PUBLIC "-//W3C//DTD SVG 20010904//EN"
 "http://www.w3.org/TR/2001/REC-SVG-20010904/DTD/svg10.dtd">
<svg version="1.0" xmlns="http://www.w3.org/2000/svg"
 width="1250.000000pt" height="1250.000000pt" viewBox="0 0 1250.000000 1250.000000"
 preserveAspectRatio="xMidYMid meet">
<metadata>
Created by potrace 1.14, written by Peter Selinger 2001-2017
</metadata>
<g transform="translate(0.000000,1250.000000) scale(0.100000,-0.100000)"
fill="#000000" stroke="none">
<path d="M2867 9123 c-4 -7 -1826 -3916 -1958 -4200 -100 -217 -259 -469 -361
-574 -41 -42 -86 -76 -123 -94 -54 -25 -233 -74 -327 -90 l-38 -6 0 -74 0 -75
451 0 450 0 -42 -60 c-68 -97 -158 -184 -224 -215 -54 -25 -233 -74 -328 -90
l-37 -6 0 -74 0 -75 860 0 860 0 0 74 0 74 -72 7 c-220 20 -375 59 -442 110
-85 65 -130 157 -112 230 l6 25 175 0 175 0 0 74 0 73 -62 7 c-35 3 -102 11
-151 18 -82 10 -87 12 -81 32 8 27 83 193 280 613 l159 342 1035 0 1035 1 64
-143 c169 -372 215 -561 162 -665 -25 -48 -84 -104 -140 -132 -61 -31 -204
-59 -338 -66 l-113 -7 0 -74 0 -73 440 0 440 0 0 -65 c0 -102 -55 -183 -159
-235 -61 -31 -204 -59 -338 -66 l-113 -7 0 -74 0 -73 2112 2 2112 3 20 63 c23
73 10 72 165 18 373 -130 805 -196 1286 -196 676 0 1217 118 1812 395 l102 47
4 912 c3 878 4 914 24 1002 11 49 30 109 42 132 70 136 195 199 419 209 l122
6 0 73 0 74 -429 0 -429 0 14 60 c47 203 182 295 452 307 l122 6 0 73 0 74
-1060 0 -1060 0 0 -74 0 -73 131 -7 c165 -9 265 -27 345 -65 107 -50 194 -158
210 -260 l7 -41 -212 0 -211 0 0 -74 0 -73 130 -7 c131 -7 218 -18 276 -37 24
-7 33 -17 38 -41 3 -17 6 -376 6 -798 l0 -767 -97 -45 c-305 -141 -605 -213
-943 -225 -246 -9 -464 22 -692 98 -120 40 -288 112 -288 124 0 6 140 417 156
460 4 9 -16 17 -65 26 -39 7 -72 10 -74 8 -1 -2 -42 -83 -90 -179 -118 -236
-105 -222 -171 -176 -29 20 -70 51 -90 69 l-36 32 130 375 c71 206 130 376
130 377 0 4 -140 26 -143 22 -1 -2 -40 -79 -85 -171 -46 -92 -118 -219 -160
-283 -87 -132 -74 -131 -164 -12 -70 91 -85 123 -131 277 -87 287 -120 526
-121 865 0 269 13 407 59 624 121 571 443 1076 860 1347 204 132 419 215 693
265 137 26 522 37 668 20 411 -47 737 -188 1010 -435 94 -85 225 -249 243
-303 8 -24 20 -43 27 -43 26 0 153 -244 225 -432 l34 -88 73 0 72 0 -1 43 c0
23 -30 377 -67 787 l-67 745 -77 3 c-87 3 -80 9 -92 -88 -7 -61 -28 -128 -34
-111 -2 7 -18 171 -36 365 l-31 351 -74 3 c-83 3 -91 -2 -91 -58 0 -19 -7 -59
-14 -88 -31 -114 -83 -162 -176 -162 -62 0 -106 12 -425 114 -268 87 -515 149
-680 173 -184 26 -671 26 -865 0 -657 -89 -1163 -331 -1609 -770 -392 -387
-677 -899 -781 -1404 -66 -319 -66 -681 1 -1006 48 -236 173 -545 302 -749 31
-47 74 -131 97 -185 78 -184 187 -371 311 -534 l58 -77 -87 -11 c-206 -26
-455 -33 -972 -27 -289 3 -544 9 -567 12 l-43 6 0 1642 c0 995 4 1696 10 1780
17 235 42 310 133 392 130 119 338 174 659 174 l108 0 0 75 0 75 -574 0 -574
0 10 38 c37 134 172 244 358 291 95 24 261 41 402 41 l108 0 0 75 0 75 -1235
0 -1235 0 0 -74 0 -74 188 -5 c244 -7 316 -26 439 -118 57 -43 107 -130 119
-206 l7 -43 -242 0 -241 0 0 -74 0 -74 188 -5 c141 -4 203 -9 252 -24 l65 -18
2 -1075 c2 -897 0 -1071 -11 -1050 -7 14 -260 566 -561 1228 -406 889 -553
1202 -565 1202 -12 0 -50 73 -135 260 l-118 260 -73 0 c-40 0 -75 -3 -77 -7z
m6673 -273 c309 -38 573 -129 790 -275 103 -69 207 -153 175 -141 -134 49
-458 129 -620 153 -174 25 -675 25 -865 0 -508 -69 -915 -225 -1283 -493 -48
-35 -90 -64 -93 -64 -12 0 100 150 176 237 174 199 406 360 665 463 131 52
368 107 535 123 83 9 443 6 520 -3z m-6777 -1045 c-10 -22 -205 -443 -434
-935 l-417 -895 -62 -3 c-53 -3 -62 -1 -57 12 4 9 214 459 469 1001 l462 985
28 -62 c29 -63 29 -63 11 -103z m552 -1126 l322 -704 -334 -3 c-183 -1 -483
-1 -667 0 l-334 3 336 718 c235 501 340 714 346 704 5 -7 154 -330 331 -718z
m-1539 -997 c-6 -10 -564 -1207 -585 -1254 -9 -21 -19 -38 -23 -38 -17 0 -19
93 -4 169 24 119 61 208 287 691 l204 439 63 1 c35 0 61 -3 58 -8z m2026 -94
c26 -57 50 -111 53 -120 7 -17 -40 -18 -894 -18 -496 0 -901 2 -901 5 0 3 24
57 54 120 l55 115 793 0 794 0 46 -102z m6918 -1572 l0 -103 -97 -45 c-305
-141 -605 -213 -943 -225 -340 -12 -643 54 -955 207 -156 77 -236 125 -195
116 358 -72 976 -85 1395 -30 243 31 483 85 690 152 50 17 93 30 98 31 4 1 7
-46 7 -103z m-3158 -48 c65 -48 66 -48 -42 -77 -187 -52 -467 -71 -1050 -71
-466 0 -703 11 -785 35 -62 18 -129 64 -155 108 -11 18 -20 35 -20 40 0 4 449
7 998 7 l997 0 57 -42z"/>
</g>
</svg>
